# This file uses centimeters as units for non-parametric coordinates.

mtllib ROOM.mtl
g default
v -23.699158 3.424770 16.571077
v 23.699158 3.424770 16.571077
v -23.699158 20.513785 16.571077
v 23.699158 20.513785 16.571077
v -23.699158 20.513785 -16.571077
v 23.699158 20.513785 -16.571077
v -23.699158 3.424770 -16.571077
v 23.699158 3.424770 -16.571077
vt 0.375000 0.659267
vt 0.625000 0.659267
vt 0.125000 0.659267
vt 0.625000 0.909267
vt 0.375000 0.159267
vt 0.625000 0.159267
vt 0.375000 0.409267
vt 0.625000 0.409267
vt 0.875000 0.409267
vt 0.125000 0.409267
vt 0.875000 0.659267
vt 0.375000 0.909267
vn 0.000000 0.000000 -1.000000
vn 0.000000 0.000000 -1.000000
vn 0.000000 0.000000 -1.000000
vn 0.000000 0.000000 -1.000000
vn 0.000000 0.000000 1.000000
vn 0.000000 0.000000 1.000000
vn 0.000000 0.000000 1.000000
vn 0.000000 0.000000 1.000000
vn 0.000000 1.000000 0.000000
vn 0.000000 1.000000 0.000000
vn 0.000000 1.000000 0.000000
vn 0.000000 1.000000 0.000000
vn -1.000000 0.000000 0.000000
vn -1.000000 0.000000 0.000000
vn -1.000000 0.000000 0.000000
vn -1.000000 0.000000 0.000000
vn 1.000000 0.000000 0.000000
vn 1.000000 0.000000 0.000000
vn 1.000000 0.000000 0.000000
vn 1.000000 0.000000 0.000000
s off
g pCube1
usemtl lambert2SG
f 1/1/1 3/12/2 4/4/3 2/2/4
f 5/5/5 7/7/6 8/8/7 6/6/8
f 7/7/9 1/1/10 2/2/11 8/8/12
f 2/2/13 4/11/14 6/9/15 8/8/16
f 7/7/17 5/10/18 3/3/19 1/1/20
